ply
format ascii 1.0
element vertex 24
property float x
property float y
property float z
element face 42
property list uchar int vertex_indices
end_header
-10.0 -10.0 0.0
10.0 -10.0 0.0
10.0 10.0 0.0
-10.0 10.0 0.0
-10.0 -10.0 20.0
10.0 -10.0 20.0
10.0 10.0 20.0
-10.0 10.0 20.0
0.0 -15.0 10.0
0.0 15.0 10.0
-15.0 0.0 10.0
15.0 0.0 10.0
-5.0 -5.0 25.0
5.0 -5.0 25.0
5.0 5.0 25.0
-5.0 5.0 25.0
-8.0 -8.0 15.0
8.0 -8.0 15.0
8.0 8.0 15.0
-8.0 8.0 15.0
-3.0 -12.0 18.0
3.0 -12.0 18.0
3.0 12.0 18.0
-3.0 12.0 18.0
3 0 1 2
3 0 2 3
3 4 5 6
3 4 6 7
3 0 4 5
3 0 5 1
3 1 5 6
3 1 6 2
3 2 6 7
3 2 7 3
3 3 7 4
3 3 4 0
3 8 9 10
3 8 10 11
3 12 13 14
3 12 14 15
3 16 17 18
3 16 18 19
3 20 21 22
3 20 22 23
3 0 8 9
3 1 9 10
3 2 10 11
3 3 11 8
3 4 12 13
3 5 13 14
3 6 14 15
3 7 15 12
3 8 16 17
3 9 17 18
3 10 18 19
3 11 19 16
3 12 20 21
3 13 21 22
3 14 22 23
3 15 23 20
3 16 20 17
3 17 21 18
3 18 22 19
3 19 23 16
3 20 8 21
3 21 9 22
